<?xml version="1.0" encoding="UTF-8" standalone="no"?>
<!-- Created with Inkscape (http://www.inkscape.org/) -->

<svg
   width="53.628792mm"
   height="44.250706mm"
   viewBox="0 0 53.628792 44.250706"
   version="1.1"
   id="svg1"
   xml:space="preserve"
   inkscape:version="1.4.2 (ebf0e940d0, 2025-05-08)"
   sodipodi:docname="alien.svg"
   xmlns:inkscape="http://www.inkscape.org/namespaces/inkscape"
   xmlns:sodipodi="http://sodipodi.sourceforge.net/DTD/sodipodi-0.dtd"
   xmlns="http://www.w3.org/2000/svg"
   xmlns:svg="http://www.w3.org/2000/svg"><sodipodi:namedview
     id="namedview1"
     pagecolor="#ffffff"
     bordercolor="#000000"
     borderopacity="0.25"
     inkscape:showpageshadow="2"
     inkscape:pageopacity="0.0"
     inkscape:pagecheckerboard="0"
     inkscape:deskcolor="#d1d1d1"
     inkscape:document-units="mm"
     inkscape:zoom="1.7839566"
     inkscape:cx="130.88883"
     inkscape:cy="103.70207"
     inkscape:window-width="1431"
     inkscape:window-height="936"
     inkscape:window-x="0"
     inkscape:window-y="0"
     inkscape:window-maximized="1"
     inkscape:current-layer="g3" /><defs
     id="defs1" /><g
     inkscape:label="Layer 1"
     inkscape:groupmode="layer"
     id="layer1"
     transform="translate(-53.00454,-105.02775)"><g
       id="g3"
       transform="translate(-29.783898,10.906776)"><path
         style="fill:#339661"
         d="m 118.26875,138.03205 c -0.58337,-0.29742 -0.66159,-0.50779 -0.6626,-1.78203 l -0.001,-1.44481 -1.13232,-0.0818 c -1.11243,-0.0804 -1.1298,-0.0687 -0.98946,0.66146 l 0.14284,0.74325 -0.27907,-0.70016 c -0.20886,-0.52403 -0.50364,-0.72638 -1.17177,-0.80438 -0.49098,-0.0573 -1.10346,-0.0303 -1.36107,0.0601 -0.38378,0.13462 -0.3158,0.23182 0.37644,0.53824 0.46464,0.20567 0.85391,0.43417 0.86505,0.50779 0.0111,0.0736 0.0633,0.3638 0.11592,0.64485 0.0526,0.28105 -0.0202,0.72754 -0.16184,0.99219 -0.21479,0.40134 -0.155,0.48119 0.36032,0.48119 0.33982,0 0.78475,-0.14883 0.98874,-0.33073 0.31552,-0.28136 0.31859,-0.26162 0.0205,0.13229 -0.45829,0.60564 -3.53744,0.63971 -4.99803,0.0553 -0.95525,-0.38221 -1.03592,-0.50224 -1.28924,-1.91822 -0.14863,-0.83078 -0.21441,-2.31393 -0.14619,-3.2959 0.0998,-1.436 0.0288,-1.92788 -0.36245,-2.51354 -0.26758,-0.40048 -0.46003,-0.81745 -0.42767,-0.92659 0.0324,-0.10914 -0.0714,-0.19844 -0.23051,-0.19844 -0.15915,0 -0.34938,0.22955 -0.42275,0.51012 -0.13174,0.50376 -0.14471,0.50376 -1.04161,0 -0.49952,-0.28057 -1.02366,-0.51012 -1.16475,-0.51012 -0.47909,0 -0.25935,0.57798 0.27263,0.71709 0.29104,0.0761 0.52917,0.24007 0.52917,0.36435 0,0.28321 -2.67531,1.5644 -3.26668,1.5644 -0.24062,0 -0.43749,0.11906 -0.43749,0.26458 0,0.14552 -0.41672,0.26458 -0.92604,0.26458 -0.50933,0 -0.92604,0.12446 -0.92604,0.27658 0,0.171 0.34191,0.21242 0.89574,0.10853 1.32776,-0.24909 1.45374,0.32555 0.14843,0.67704 -1.793369,0.4829 -3.509808,-0.16737 -2.805583,-1.0629 0.984264,-1.25163 4.065003,-3.07649 6.757823,-4.00296 1.6972,-0.58392 1.91615,-0.60294 1.26559,-0.10992 -0.46645,0.35351 -0.46417,0.37854 0.0602,0.65917 0.43819,0.23451 0.51718,0.21905 0.40286,-0.0789 -0.10388,-0.27071 0.18273,-0.4193 1.06351,-0.55138 0.66314,-0.0994 1.32643,-0.10621 1.47396,-0.015 0.14754,0.0912 1.72546,0.22351 3.50651,0.29405 3.29886,0.13066 4.10715,0.24687 3.8067,0.54732 -0.0928,0.0928 0.24733,0.45149 0.75588,0.79706 0.50855,0.34557 0.92464,0.73505 0.92464,0.86552 0,0.13047 0.24709,0.31564 0.5491,0.4115 0.30201,0.0958 0.48627,0.23711 0.40948,0.31391 -0.0768,0.0768 0.0333,0.31255 0.24464,0.5239 0.21135,0.21136 0.38428,0.67343 0.38428,1.02684 0,0.56859 0.11673,0.64256 1.01411,0.64256 0.88904,0 1.00839,0.0734 0.96772,0.59531 -0.0255,0.32742 0.1432,0.77391 0.37494,0.99219 0.23174,0.21828 0.42135,0.81359 0.42135,1.32292 0,0.64676 0.11969,0.92604 0.39688,0.92604 0.21828,0 0.38614,-0.1786 0.37302,-0.39688 -0.0131,-0.21828 -0.094,-1.28984 -0.17971,-2.38125 -0.0966,-1.22946 -0.0714,-1.70887 0.0662,-1.26018 0.12214,0.39831 0.26254,1.52941 0.312,2.51355 l 0.0899,1.78934 -0.92604,0.46261 c -1.10541,0.55221 -4.04058,0.62135 -5.02708,0.1184 z m -15.46255,-6.92259 c 0.28247,-0.21366 0.3745,-0.39225 0.2045,-0.39688 -0.50265,-0.0137 -1.14612,0.29458 -1.14612,0.54906 0,0.34675 0.35859,0.2888 0.94162,-0.15218 z m 12.8376,5.52578 c 0.0127,-0.30822 0.0754,-0.37092 0.15986,-0.15985 0.0764,0.191 0.067,0.4192 -0.0209,0.50712 -0.0879,0.0879 -0.15046,-0.0683 -0.13897,-0.34727 z m 11.09162,-4.61923 c -1.67349,-0.42941 -3.0642,-0.78118 -3.09046,-0.78171 -0.0263,-5.3e-4 -0.0993,0.26692 -0.1624,0.59435 -0.10211,0.53013 -0.11861,0.51867 -0.1507,-0.10465 -0.0303,-0.58774 -0.31172,-0.83291 -1.75582,-1.52939 -1.67281,-0.80678 -1.99984,-1.13822 -1.45521,-1.47482 0.14552,-0.0899 0.26459,-0.0247 0.26459,0.14499 0,0.17395 0.18443,0.23773 0.42286,0.14623 0.23257,-0.0892 0.95445,0.0182 1.60418,0.2388 0.77245,0.26226 1.74789,0.35802 2.81828,0.27668 0.90033,-0.0684 1.79282,-0.12908 1.98331,-0.13481 0.19049,-0.006 0.27784,-0.12127 0.19412,-0.25673 -0.30111,-0.48721 0.36866,-0.54789 1.35959,-0.12318 4.19017,1.79589 4.8098,2.21901 4.34674,2.96826 -0.2352,0.38056 -1.73575,0.84578 -2.67317,0.82877 -0.36476,-0.007 -2.03243,-0.36338 -3.70591,-0.79279 z m 4.59568,0.26759 c -0.18054,-0.18054 -0.48892,-0.1862 -0.91281,-0.0168 -0.60152,0.24043 -0.58506,0.25689 0.27265,0.27265 0.62654,0.0115 0.8273,-0.0687 0.64016,-0.25588 z m 1.44199,-0.74026 c 0.0635,-0.43187 -0.0515,-0.57459 -0.46302,-0.57459 -0.31034,0 -0.54757,0.17194 -0.54757,0.39687 0,0.21829 0.12609,0.39688 0.2802,0.39688 0.15411,0 0.19706,0.13451 0.0955,0.29891 -0.11201,0.18124 -0.0401,0.2512 0.18282,0.17771 0.20216,-0.0667 0.40561,-0.37976 0.45211,-0.69578 z m -2.48896,0.0591 c 0.64931,-0.24916 0.21562,-0.63329 -0.72006,-0.63778 -0.64243,-0.003 -0.74939,-0.0654 -0.4474,-0.26053 0.21828,-0.14107 0.69027,-0.25831 1.04888,-0.26054 0.61134,-0.004 0.62421,-0.0319 0.20624,-0.44981 -0.35958,-0.35959 -0.56236,-0.38838 -1.04888,-0.14892 -0.84104,0.41394 -2.03272,0.7033 -1.56706,0.3805 0.19744,-0.13686 0.25128,-0.3154 0.11966,-0.39674 -0.33103,-0.20459 -0.72788,0.12271 -0.82096,0.67707 -0.0439,0.2613 0.087,0.46302 0.30048,0.46302 0.20803,0 0.71926,0.17786 1.13608,0.39524 0.83273,0.4343 1.16692,0.47875 1.79302,0.23849 z m -26.08791,0.50845 c 0.191,-0.0764 0.4192,-0.067 0.50712,0.0209 0.0879,0.0879 -0.0683,0.15046 -0.34727,0.13897 -0.30822,-0.0127 -0.37091,-0.0754 -0.15985,-0.15985 z m 3.34133,-1.25988 c 0.28247,-0.2263 0.62974,-0.41147 0.7717,-0.41147 0.33616,0 0.18606,0.12221 -0.62383,0.50793 -0.6237,0.29703 -0.63214,0.29152 -0.14787,-0.0965 z m 0.28016,-3.53301 c 0.38528,-0.10903 0.16945,-0.23767 -0.79375,-0.47308 -0.97031,-0.23715 -1.12521,-0.3301 -0.58117,-0.34873 0.63499,-0.0217 0.34199,-0.29271 -2.03568,-1.88262 -1.52758,-1.02148 -4.00449,-3.00066 -5.504246,-4.39819 -2.821636,-2.6293 -4.120061,-3.6037 -4.494068,-3.37255 -0.84621,0.52299 0.705246,3.67239 2.673106,5.42632 1.360771,1.21283 2.131154,1.65959 1.72301,0.9992 -0.09927,-0.16062 0.135548,-0.085 0.521809,0.16813 0.38626,0.25309 0.771539,0.39092 0.856169,0.30629 0.0846,-0.0846 -0.24651,-0.39797 -0.735864,-0.69631 -0.489355,-0.29834 -0.756964,-0.54288 -0.594688,-0.54343 0.162276,-5.4e-4 0.617252,0.25246 1.011057,0.56223 0.835745,0.65739 0.560805,1.26324 -0.351658,0.7749 -0.306664,-0.16412 -0.557572,-0.22726 -0.557572,-0.14031 0,0.087 0.863203,0.57205 1.918225,1.078 1.05503,0.50595 1.62058,0.84267 1.25678,0.74826 -2.231807,-0.57918 -6.55602,-3.37633 -7.634453,-4.9384 -0.227528,-0.32956 -0.571306,-0.76046 -0.76395,-0.95754 -0.905265,-0.92613 -1.391185,-2.42185 -1.391185,-4.28223 0,-1.6971 0.10647,-2.08213 1.075726,-3.89014 l 1.075726,-2.00661 -0.853743,-2.23233 c -0.291834,-0.76307 -1.725103,-1.46183 -2.451532,-1.98719 -1.047642,-0.75765 -1.464654,-0.98293 -2.016499,-1.08939 -0.774375,-0.14939 -2.390922,-0.8219 -3.121643,-1.29866 -1.400647,-0.91384 -2.68885,-2.39746 -3.061326,-3.52572 -0.411312,-1.245896 -0.200421,-1.851714 0.812633,-2.334415 0.452275,-0.2155 0.58558,-0.224179 1.433723,-0.09335 1.881527,0.290232 3.202535,1.010678 4.560507,2.48719 0.683668,0.743345 1.092609,1.350065 1.584115,2.350225 0.720908,1.46697 0.208386,2.1518 3.683658,4.21402 l 3.424048,2.03182 1.226783,-0.18007 c 0.674732,-0.099 1.506972,-0.28463 1.849432,-0.41243 1.71527,-0.64012 6.09278,-1.0069 12.10213,-1.01401 3.47887,-0.004 6.62043,0.023 6.98125,0.0602 0.57323,0.0591 1.96605,-1.38733 3.30729,-2.78239 2.82849,-2.94197 2.83261,-2.94741 2.7123,-3.57926 -0.22071,-1.159164 -0.0468,-2.465448 0.40747,-3.061238 0.45347,-0.594697 1.74858,-1.538894 2.57705,-1.878804 2.44599,-1.003538 3.38271,-1.13938 4.70564,-0.6824 0.7428,0.256587 0.96433,0.405512 1.42114,0.955364 0.29764,0.358266 0.57524,0.799549 0.6169,0.980629 0.12203,0.530489 -0.21433,1.533341 -0.8047,2.399254 -0.95814,1.405325 -2.54822,2.309235 -5.08856,2.892705 -0.88348,0.20291 -1.31917,0.48924 -2.96545,1.94881 -1.61543,1.43222 -1.60482,4.6574 -1.27895,5.05005 0.15599,0.18795 1.20321,0.98611 2.32717,1.77369 2.85339,1.99942 4.7462,4.59919 4.76232,6.54103 0.009,1.03924 -1.44784,4.42281 -2.27579,5.28701 -1.52072,1.58729 -5.31606,3.428 -7.85236,3.80835 -1.45083,0.21756 -1.79899,0.55679 -0.92939,0.90555 0.33677,0.13506 0.45929,0.25312 0.27227,0.26234 -0.18702,0.009 -0.60374,-0.15508 -0.92604,-0.36511 -0.48113,-0.31354 -0.94115,-0.33212 -2.57038,-0.10383 -1.09141,0.15293 -3.90922,0.29502 -6.26181,0.31574 -2.35259,0.0207 -4.36673,0.12698 -4.47587,0.23612 -0.10914,0.10914 -0.38695,0.18463 -0.61736,0.16774 -0.28658,-0.021 -0.25175,-0.078 0.11025,-0.18043 z m 4.7625,-0.84721 c -0.0899,-0.14552 -0.66251,-0.26276 -1.27239,-0.26053 -0.81341,0.003 -1.00312,0.0724 -0.71199,0.26053 0.53039,0.34277 2.19622,0.34277 1.98438,0 z m 8.09628,-0.53676 c 0.49283,-0.14134 1.23129,-0.25699 1.64102,-0.25699 0.40973,0 0.67909,-0.10658 0.59858,-0.23686 -0.17551,-0.28398 0.45717,-0.55689 1.29103,-0.55689 0.98723,0 4.37879,-1.52255 5.81842,-2.61202 1.7027,-1.28855 3.23264,-4.19313 2.96231,-5.62393 -0.22664,-1.19957 -1.13337,-2.63745 -1.76781,-2.80336 -0.28373,-0.0742 -0.51587,-0.22564 -0.51587,-0.33653 0,-0.11089 -0.36028,-0.35086 -0.80062,-0.53325 -0.44034,-0.18239 -1.03322,-0.6583 -1.31753,-1.05756 -0.31233,-0.43864 -1.30748,-1.07337 -2.51449,-1.60381 -1.47581,-0.64857 -1.8928,-0.93652 -1.5964,-1.10239 0.23234,-0.13002 0.61806,-0.10845 0.91647,0.0512 0.79205,0.42389 1.2148,0.36105 0.81465,-0.12111 -0.18116,-0.21828 -0.5034,-0.39687 -0.71609,-0.39687 -0.2702,0 -0.15324,-0.29892 0.38824,-0.99219 1.26982,-1.62577 0.76505,-3.64491 0.59742,-3.64491 -0.0858,0 -0.19561,0.0727 -0.24392,0.16147 -0.0483,0.0888 -0.14326,0.13731 -0.211,0.10778 -0.10582,-0.0461 1.00742,0.21084 -0.3018,1.86004 -0.11802,0.14867 -0.16584,0.41656 -0.10625,0.59531 0.0596,0.17875 -0.0207,0.325 -0.1783,0.325 -0.15765,0 -0.28663,0.18243 -0.28663,0.4054 0,0.54439 -1.08454,0.94226 -1.54805,0.56791 -0.54567,-0.44069 -1.09779,-0.44294 -1.09779,-0.004 0,0.23422 -0.18697,0.35423 -0.46302,0.29718 -0.25466,-0.0526 -0.44695,-0.29665 -0.42732,-0.54229 0.0246,-0.3082 -0.22135,-0.48598 -0.79375,-0.57367 -0.4562,-0.0699 -1.54382,-0.23201 -2.41695,-0.36027 -2.39684,-0.3521 -10.73099,-0.25373 -11.40828,0.13466 -0.74108,0.42496 -1.4036,3.48569 -0.92287,4.26353 0.0979,0.15838 1.03306,0.33413 2.07817,0.39056 1.6135,0.0871 1.98011,0.19856 2.42977,0.73859 0.29126,0.34979 0.53352,0.73802 0.53837,0.86273 0.005,0.12471 0.16879,0.16535 0.36433,0.0903 0.19554,-0.075 1.11827,0.0271 2.05052,0.22699 2.03034,0.43531 2.35108,0.45592 1.82728,0.11741 -0.30926,-0.19986 -0.23625,-0.25737 0.33073,-0.26053 0.70529,-0.004 0.92148,0.24305 0.54356,0.62097 -0.45146,0.45146 -0.27107,0.96248 0.33975,0.96248 0.35092,0 0.63805,0.12609 0.63805,0.2802 0,0.15841 0.14375,0.19003 0.33072,0.0728 0.48759,-0.30584 1.22832,-0.11682 1.80597,0.46082 0.72023,0.72023 1.03831,0.63305 1.03831,-0.2846 0,-0.43657 -0.11907,-0.79375 -0.26459,-0.79375 -0.14552,0 -0.26458,-0.11533 -0.26458,-0.25628 0,-0.14096 0.15224,-0.19786 0.33832,-0.12646 0.18608,0.0714 0.57303,-0.0476 0.8599,-0.26447 0.29031,-0.21947 0.37493,-0.39803 0.19084,-0.40271 -0.47576,-0.0121 -0.40804,-0.71589 0.0872,-0.90592 0.4887,-0.18753 1.69877,0.0699 1.69877,0.36132 0,0.11011 0.53578,0.16009 1.19062,0.11106 0.8783,-0.0657 1.19063,0.007 1.19063,0.27552 0,0.24093 0.18975,0.31502 0.55929,0.21839 0.47452,-0.12409 0.53197,-0.0602 0.37904,0.42164 -0.1576,0.49656 -0.0783,0.56791 0.63134,0.56791 0.44637,0 0.81158,0.0929 0.81158,0.20642 0,0.11353 -0.56555,0.19161 -1.25677,0.1735 -1.57701,-0.0413 -1.92691,0.0833 -1.7233,0.61395 0.12381,0.32265 0.0488,0.37764 -0.32144,0.23558 -0.70789,-0.27164 -2.9988,0.47455 -4.49061,1.46269 -1.57536,1.04347 -4.11413,3.39541 -4.11413,3.81136 0,0.16564 -0.49829,0.88347 -1.10732,1.59518 -0.60902,0.71172 -0.9424,1.1452 -0.74083,0.9633 0.55847,-0.50399 0.78982,-0.39971 0.78982,0.35603 0,0.37771 0.25672,1.0473 0.5705,1.48795 0.56842,0.79828 0.57744,0.80057 2.47563,0.62856 1.04783,-0.095 2.30836,-0.28828 2.80119,-0.42962 z m 0.0986,-2.38524 c -0.25883,-0.41879 0.39044,-1.04675 1.08228,-1.04675 0.76466,0 1.0561,0.4303 0.63505,0.93763 -0.36959,0.44534 -1.46647,0.51503 -1.71733,0.10912 z m 5.04516,-1.01903 c 0.85877,-1.70976 0.84928,-3.23047 -0.0305,-4.88304 -0.37454,-0.70357 -0.61877,-1.34144 -0.54273,-1.41748 0.15836,-0.15836 1.46729,1.26129 1.47994,1.60513 0.005,0.12492 0.30602,0.15242 0.66982,0.0611 0.48812,-0.12251 0.66146,-0.0607 0.66146,0.2359 0,0.38858 0.29508,0.51283 0.99813,0.4203 0.18516,-0.0244 0.50586,0.12489 0.71265,0.33168 0.32494,0.32493 0.30476,0.45245 -0.14853,0.939 -0.28849,0.30966 -0.81755,0.56302 -1.17568,0.56302 -0.35813,0 -0.65115,0.13545 -0.65115,0.301 0,0.34499 -2.15283,3.10713 -2.43648,3.12606 -0.10313,0.007 0.10523,-0.57032 0.46302,-1.28268 z m 3.03179,-2.67355 c 0,-0.14552 -0.0525,-0.26458 -0.11667,-0.26458 -0.0642,0 -0.19027,0.11906 -0.2802,0.26458 -0.0899,0.14552 -0.0374,0.26458 0.11667,0.26458 0.15411,0 0.2802,-0.11906 0.2802,-0.26458 z m -5.95312,1.5658 c 0.70211,-0.19785 0.66675,-0.2128 -0.30627,-0.12944 -1.15291,0.0988 -1.67811,-0.18889 -1.67811,-0.9191 0,-0.45697 0.79431,-1.31389 1.21146,-1.30696 0.13406,0.002 0.0652,0.13252 -0.15312,0.28954 -0.33008,0.23744 -0.3153,0.25902 0.0878,0.12824 0.26656,-0.0865 0.68328,-0.16562 0.92604,-0.17584 0.35272,-0.0149 0.33508,-0.0643 -0.0878,-0.24599 -0.42826,-0.18403 -0.34556,-0.23094 0.43371,-0.24599 1.235,-0.0238 2.21693,0.72011 1.97142,1.49365 -0.20221,0.6371 -1.66495,1.41283 -2.57741,1.36687 -0.54279,-0.0273 -0.52098,-0.0596 0.17228,-0.25498 z m -1.24452,-0.76002 c -0.36506,-0.58456 -0.6221,-0.5117 -0.38397,0.10885 0.0862,0.22456 0.28048,0.40829 0.4318,0.40829 0.17414,0 0.15658,-0.18983 -0.0478,-0.51714 z m 2.95665,-1.34528 c -0.21407,-0.13538 -0.56781,-0.24622 -0.78609,-0.2463 -0.21875,-8e-5 -0.1,0.1563 0.26458,0.34844 0.72173,0.38035 1.15138,0.2962 0.52151,-0.10214 z m 4.84097,-2.74876 c 0.0373,-0.30931 0.35471,-0.58856 0.80632,-0.70933 0.58727,-0.15706 0.6857,-0.12795 0.46531,0.1376 -0.15373,0.18524 -0.19125,0.43272 -0.0834,0.54996 0.10788,0.11724 -0.066,0.14869 -0.38648,0.0699 -0.32044,-0.0788 -0.64577,-0.007 -0.72294,0.15937 -0.0772,0.16646 -0.11264,0.0731 -0.0788,-0.20749 z m -0.94179,-1.06982 c -0.24857,-0.18176 -0.45194,-0.40664 -0.45194,-0.49973 0,-0.31977 0.99369,-0.1691 1.29727,0.1967 0.4223,0.50884 -0.23945,0.74606 -0.84533,0.30303 z m -10.83683,-1.90972 c -0.25467,-0.0665 -0.46302,-0.23552 -0.46302,-0.37549 0,-0.15337 0.21027,-0.14196 0.52916,0.0287 0.29104,0.15576 0.52917,0.33854 0.52917,0.40618 0,0.0676 -0.0298,0.10917 -0.0661,0.0923 -0.0364,-0.0169 -0.2745,-0.0851 -0.52916,-0.15169 z m 1.91823,-1.52896 c 0,-0.44029 -0.23702,-0.78159 -0.72761,-1.04774 l -0.7276,-0.39473 0.6952,-0.0106 c 0.38237,-0.006 0.84343,0.168 1.02459,0.38628 0.18116,0.21828 0.24069,0.39687 0.13229,0.39687 -0.1084,0 -0.0489,0.1786 0.13229,0.39688 0.26554,0.31996 0.259,0.39766 -0.0337,0.40092 -0.28521,0.003 -0.27797,0.0591 0.0337,0.26054 0.33917,0.21918 0.32955,0.25707 -0.0661,0.26053 -0.317,0.003 -0.46302,-0.20189 -0.46302,-0.64896 z m -12.53345,-1.0729 c -0.12998,-0.33872 -0.0606,-0.3541 0.43471,-0.0965 0.84358,0.43878 0.87576,0.49945 0.26489,0.49945 -0.29973,0 -0.61455,-0.18135 -0.6996,-0.40299 z m 17.0314,3.31345 c 0,-0.14552 -0.17859,-0.26458 -0.39687,-0.26458 -0.21828,0 -0.39688,0.11906 -0.39688,0.26458 0,0.14552 0.1786,0.26458 0.39688,0.26458 0.21828,0 0.39687,-0.11906 0.39687,-0.26458 z m -26.789061,-5.89477 c 0.181901,0.0649 0.330729,-0.0239 0.330729,-0.19728 0,-0.41831 -1.319748,-0.0979 -1.852083,0.44968 -0.357465,0.36769 -0.318056,0.36957 0.396875,0.0189 0.436563,-0.21413 0.942578,-0.33622 1.124479,-0.27129 z m 29.411791,-4.51477 c -0.0521,-0.0594 0.007,-0.10806 0.13111,-0.10806 0.12419,0 0.51234,-0.25531 0.86257,-0.56735 1.19419,-1.06397 1.93931,-1.53143 2.86202,-1.79552 2.78634,-0.7975 3.34494,-1.08363 4.37123,-2.239106 0.73809,-0.830992 1.01021,-1.393659 1.06734,-2.206994 0.042,-0.597291 0.009,-0.681857 -0.33474,-0.868369 -0.39874,-0.216126 -0.8478,-0.286235 -0.69164,-0.107982 0.0498,0.0569 0.007,0.425297 -0.0961,0.818655 -0.15804,0.605085 -0.15304,0.72992 0.0325,0.81083 0.18262,0.07962 0.16817,0.124832 -0.0863,0.27002 -0.30168,0.172131 -0.30117,0.173714 0.0389,0.122477 0.45865,-0.0691 0.56844,0.08727 0.33746,0.480664 -0.13338,0.227163 -0.23828,0.289668 -0.35176,0.209608 -0.22448,-0.158359 -0.4068,-0.142473 -0.4068,0.03544 0,0.08224 -0.29297,0.331092 -0.65103,0.553009 -0.35807,0.221917 -1.02402,0.641962 -1.47988,0.933438 -0.89162,0.57008 -1.43849,0.73255 -1.85221,0.55027 -0.20459,-0.0901 -0.3475,-0.0578 -0.6662,0.15067 -0.22317,0.14597 -0.40575,0.31612 -0.40575,0.37811 0,0.062 -0.08,0.0939 -0.17777,0.0709 -0.30661,-0.0721 -0.90539,0.41961 -0.99724,0.81891 -0.0632,0.27464 -0.32537,0.54861 -0.93005,0.9718 -0.46723,0.32699 -0.7958,0.64216 -0.73812,0.708 0.0572,0.0653 0.13842,0.11866 0.18055,0.11866 0.0421,0 0.034,-0.0486 -0.0181,-0.10807 z m -35.101558,0.57402 c 0.149199,0 -0.191949,-0.21291 -0.162673,-0.29102 0.114638,-0.30586 -1.053345,-0.93978 -1.303194,-0.70731 -0.11934,0.11104 1.218683,1.156 1.474078,1.15122 0.181984,-0.003 -0.245908,-0.15289 -0.0082,-0.15289 z m 1.23573,-0.37469 c 0,-0.0232 -0.137678,-0.14705 -0.305949,-0.27521 l -0.305949,-0.23301 0.259036,0.27521 c 0.243428,0.25863 0.352862,0.3309 0.352862,0.23301 z m 34.080758,-2.18592 c 0.21006,0.0148 0.12237,-0.16396 -0.0578,-0.21274 -0.12853,-0.0348 -0.23368,-0.0444 -0.23368,-0.0215 0,0.023 -0.0419,0.11873 -0.093,0.21274 -0.11456,0.21062 0.0134,-0.005 0.38451,0.0215 z m -35.511952,0.31694 c -0.622239,0 -0.472488,-1.00527 -0.472488,-1.09403 0,-0.0888 -0.152027,-0.31582 -0.337837,-0.50457 l -0.337838,-0.3432 0.05938,0.67275 c 0.03266,0.37001 0.0623,0.6865 0.06588,0.70332 0.0036,0.0168 0.01323,0.0719 0.02146,0.12232 0.04322,0.26526 1.141002,1.37606 1.359936,1.37606 0.0627,0 0.263753,-0.93265 -0.358486,-0.93265 z m -2.863139,0.0741 c 0.271185,-0.24394 0.140194,-0.96391 -0.271163,-1.4904 -1.04508,-1.337588 -3.146427,-2.050691 -3.396958,-1.152778 -0.103066,0.369398 0.361896,1.263788 0.927552,1.784238 0.685913,0.63108 1.727744,1.12583 2.203458,1.04638 0.222026,-0.0371 0.463726,-0.12143 0.537111,-0.18744 z m 42.457831,-2.1191 c 0.42594,-0.13992 1.0291,-0.464289 1.34036,-0.720819 0.58856,-0.485079 0.68921,-0.83014 0.46885,-1.607421 -0.16674,-0.588133 -1.31633,-0.832727 -2.39709,-0.510022 -0.62168,0.185628 -0.89865,0.406426 -1.48932,1.187295 l -0.47238,0.624504 0.26824,0.428906 c 0.24429,0.390618 0.97377,0.849297 1.35372,0.851197 0.0842,4.1e-4 0.50168,-0.11372 0.92762,-0.25364 z m -2.9956,-1.817293 c 0,-0.14204 -0.34816,-0.0531 -0.42449,0.108444 -0.0373,0.07897 0.0327,0.10312 0.18191,0.06273 0.13342,-0.03612 0.24258,-0.113147 0.24258,-0.171177 z m -39.439081,0.164478 c -0.27342,0 -2.013456,-1.087611 -2.631679,-1.235128 -0.606837,-0.144799 -1.579457,-0.05758 -1.450527,0.130074 0.04115,0.0599 0.194904,0.108905 0.341668,0.108905 0.152679,0 0.333112,0.130829 0.421734,0.305793 0.182812,0.360921 0.4563,0.395377 0.64331,0.08105 0.119043,-0.200087 0.208883,-0.210891 0.818929,-0.09848 0.50877,0.09375 0.815269,0.246068 1.190256,0.59151 0.303951,0.280004 0.55438,0.420861 0.628964,0.35377 0.06816,-0.06131 0.127366,-0.237495 0.03735,-0.237495 z m 45.423311,-2.957414 c 0.31136,-0.11755 0.39455,-0.372868 0.15547,-0.477108 -0.17964,-0.07832 -0.62509,0.231383 -0.62509,0.434597 0,0.183868 0.0768,0.190821 0.46962,0.04251 z m -0.97085,-0.678923 c 0,0.205321 -0.47971,-0.209215 -1.05093,-0.03958 l -0.51582,0.153187 0.53615,0.106615 c 0.58102,0.115538 1.0306,-0.449942 1.0306,-0.220226 z m -28.03779,31.403392 c 0.191,-0.0764 0.4192,-0.067 0.50712,0.0209 0.0879,0.0879 -0.0683,0.15045 -0.34727,0.13896 -0.30822,-0.0127 -0.37091,-0.0754 -0.15985,-0.15985 z m -1.05833,-0.26458 c 0.191,-0.0764 0.4192,-0.067 0.50712,0.0209 0.0879,0.0879 -0.0683,0.15045 -0.34727,0.13896 -0.30822,-0.0127 -0.37092,-0.0754 -0.15985,-0.15985 z m -7.678754,-5.10412 c -1.028475,-1.02847 -1.201922,-1.70111 -0.451796,-1.75208 0.241444,-0.0164 0.25719,0.0141 0.04422,0.0855 -0.541942,0.18193 -0.38375,0.60129 0.596649,1.58168 0.580272,0.58028 1.080566,0.8686 1.336658,0.77033 0.234406,-0.09 0.340213,-0.0453 0.247632,0.10449 -0.287964,0.46594 -0.70181,0.28159 -1.773364,-0.78997 z m 1.642946,0.0734 c 0,-0.14993 -0.327422,-0.60403 -0.727604,-1.00912 -0.622549,-0.63017 -0.642525,-0.69181 -0.138356,-0.42689 0.634543,0.33343 1.270856,1.30371 1.019688,1.55488 -0.08455,0.0845 -0.153728,0.0311 -0.153728,-0.11887 z"
         id="path4"
         sodipodi:nodetypes="scccscsscscssssssscccssssssssssssssssscssssscssssssssscsscssssssssssssssccssscsscssscsccscccsssccccscsccsssssssssssscssccsscssssscsssssssssssscssssssssssccscssssssssssssscssscsssssssssscssssssssssscsssscsssssssssssssssccsscssscssssssssscsssssssssssssscccsssscsscssssssscccssssssssccscscscssssssssssssssssssssssssssssscsccssccscccccsccssssssssssscssssssscsssssssssssssscsccssscsssscssssscssssscscssssssssssssssscscsscssssssssssssssssssssssssssssssssscssscsccssscscs" /><path
         style="fill:#16593a"
         d="m 113.99931,137.38621 c 0.14737,-0.27537 0.22489,-0.73062 0.17227,-1.01167 -0.0526,-0.28105 -0.10479,-0.57123 -0.11592,-0.64485 -0.0111,-0.0736 -0.40041,-0.30212 -0.86505,-0.50779 -0.69224,-0.30642 -0.76022,-0.40362 -0.37644,-0.53824 0.25761,-0.0904 0.87498,-0.11683 1.37196,-0.0588 0.79228,0.0925 0.94249,0.23535 1.21944,1.15974 0.38202,1.27505 0.09,1.89267 -0.95355,2.01666 -0.6344,0.0754 -0.68858,0.0257 -0.45271,-0.41504 z m 9.13437,-0.44675 c -0.0893,-0.23281 -0.10833,-0.70631 -0.0422,-1.05224 0.0765,-0.40023 -0.0469,-0.74941 -0.33934,-0.96019 -0.25973,-0.18721 -0.42985,-0.60211 -0.3912,-0.95414 0.0613,-0.55842 -0.0374,-0.62289 -0.95358,-0.62289 -0.90567,0 -1.02194,-0.0731 -1.02194,-0.64256 0,-0.35341 -0.17293,-0.81548 -0.38428,-1.02684 -0.21135,-0.21135 -0.32144,-0.44711 -0.24464,-0.5239 0.0768,-0.0768 -0.10747,-0.21806 -0.40948,-0.31391 -0.30201,-0.0959 -0.5491,-0.28103 -0.5491,-0.4115 0,-0.13047 -0.41609,-0.51995 -0.92464,-0.86552 -0.50855,-0.34557 -0.8487,-0.70424 -0.75588,-0.79706 0.30045,-0.30045 -0.50784,-0.41666 -3.8067,-0.54732 -1.78105,-0.0705 -3.35897,-0.20286 -3.50651,-0.29405 -0.14753,-0.0912 -0.81082,-0.0844 -1.47396,0.015 -0.88078,0.13208 -1.16739,0.28067 -1.06351,0.55138 0.11432,0.29792 0.0353,0.31338 -0.40286,0.0789 -0.52436,-0.28063 -0.52664,-0.30566 -0.0602,-0.65917 0.26668,-0.2021 0.67339,-0.37124 0.90379,-0.37587 0.23041,-0.005 0.50822,-0.0977 0.61736,-0.20685 0.10914,-0.10914 2.12328,-0.2154 4.47587,-0.23612 2.35259,-0.0207 5.1704,-0.16281 6.26181,-0.31574 1.62923,-0.22829 2.08925,-0.20971 2.57038,0.10383 0.3223,0.21003 0.82096,0.38188 1.10814,0.38188 1.05829,0 4.69995,1.34209 4.69995,1.73211 0,0.21151 -0.12898,0.38925 -0.28663,0.39499 -0.15765,0.006 -1.02327,0.0664 -1.9236,0.13481 -1.07039,0.0813 -2.04583,-0.0144 -2.81828,-0.27668 -0.64973,-0.22058 -1.37161,-0.32804 -1.60418,-0.2388 -0.23843,0.0915 -0.42286,0.0277 -0.42286,-0.14623 0,-0.16968 -0.11907,-0.23493 -0.26459,-0.14499 -0.54305,0.33563 -0.21964,0.66705 1.42489,1.4602 l 1.68947,0.81481 0.29168,2.0375 c 0.44826,3.13136 0.47096,4.0903 0.0998,4.21731 -0.18182,0.0622 -0.40368,-0.0773 -0.49302,-0.31015 z m -22.59201,-4.67311 c 0,-0.1316 0.41671,-0.23927 0.92604,-0.23927 0.50932,0 0.92604,-0.11906 0.92604,-0.26458 0,-0.14552 0.19687,-0.26458 0.43749,-0.26458 0.59137,0 3.26668,-1.28119 3.26668,-1.5644 0,-0.12428 -0.23813,-0.28824 -0.52917,-0.36435 -0.53198,-0.13911 -0.75172,-0.71709 -0.27263,-0.71709 0.14109,0 0.66523,0.22955 1.16475,0.51012 0.8969,0.50376 0.90987,0.50376 1.04161,0 0.0734,-0.28057 0.28345,-0.51012 0.46685,-0.51012 0.18339,0 0.25381,0.0796 0.15648,0.17697 -0.0973,0.0973 0.021,0.39572 0.26296,0.66308 0.24196,0.26736 0.39105,0.52019 0.33131,0.56185 -0.52375,0.36518 -3.25607,1.51947 -4.1864,1.76859 -1.50059,0.40182 -3.99201,0.55396 -3.99201,0.24378 z m 29.87662,4.8e-4 c 0.42389,-0.16943 0.73227,-0.16377 0.91281,0.0168 0.18714,0.18714 -0.0136,0.26739 -0.64016,0.25588 -0.85771,-0.0158 -0.87417,-0.0322 -0.27265,-0.27265 z m 1.71987,-0.20542 c 0.1016,-0.1644 0.0587,-0.29891 -0.0955,-0.29891 -0.15411,0 -0.2802,-0.17859 -0.2802,-0.39688 0,-0.22493 0.23723,-0.39687 0.54757,-0.39687 0.41156,0 0.52657,0.14272 0.46302,0.57459 -0.0465,0.31602 -0.24995,0.62912 -0.45211,0.69578 -0.22287,0.0735 -0.29483,0.004 -0.18282,-0.17771 z m -3.64705,-0.69742 c -0.41682,-0.21738 -0.92805,-0.39524 -1.13608,-0.39524 -0.21345,0 -0.34436,-0.20172 -0.30048,-0.46302 0.0931,-0.55436 0.48993,-0.88166 0.82096,-0.67707 0.13162,0.0813 0.0778,0.25988 -0.11966,0.39674 -0.46566,0.3228 0.72602,0.0334 1.56706,-0.3805 0.48652,-0.23946 0.6893,-0.21067 1.04888,0.14892 0.41797,0.41796 0.4051,0.44602 -0.20624,0.44981 -0.35861,0.002 -0.8306,0.11947 -1.04888,0.26054 -0.30199,0.19516 -0.19503,0.25745 0.4474,0.26053 0.93568,0.004 1.36937,0.38862 0.72006,0.63778 -0.6261,0.24026 -0.96029,0.19581 -1.79302,-0.23849 z m -26.62653,-0.10235 c 0,-0.25448 0.64347,-0.56274 1.14612,-0.54906 0.17,0.005 0.078,0.18322 -0.2045,0.39688 -0.58303,0.44098 -0.94162,0.49893 -0.94162,0.15218 z m 8.73125,-4.79081 c -0.29113,-0.18814 -0.10142,-0.25756 0.71199,-0.26053 0.60988,-0.002 1.18245,0.11501 1.27239,0.26053 0.21184,0.34277 -1.45399,0.34277 -1.98438,0 z m -6.56133,-0.51415 c -2.47438,-0.70741 -5.288946,-2.19671 -6.939267,-3.67186 -1.98134,-1.77102 -3.534703,-4.91769 -2.686437,-5.44195 0.374007,-0.23115 1.672432,0.74325 4.494068,3.37255 1.499756,1.39753 3.976666,3.37671 5.504246,4.39819 3.03489,2.02938 2.9609,2.2961 -0.37261,1.34307 z m -3.63822,-2.11049 c 0.1521,-0.24611 -1.055109,-1.34411 -1.477796,-1.34411 -0.452678,0 -0.216768,0.77225 0.359136,1.17563 0.676969,0.47416 0.90821,0.50899 1.11866,0.16848 z m -2.325071,-2.28702 c 0.376951,-0.98232 -1.455651,-2.77271 -2.448216,-2.39183 -0.604423,0.23194 -0.436939,0.68722 0.654211,1.77837 1.110659,1.11066 1.546077,1.25955 1.794005,0.61346 z m 17.328461,4.17596 c -0.31378,-0.44065 -0.5705,-1.11024 -0.5705,-1.48795 0,-0.75574 -0.23135,-0.86002 -0.78982,-0.35603 -0.20157,0.1819 0.13181,-0.25158 0.74083,-0.9633 0.60903,-0.71171 1.10732,-1.42954 1.10732,-1.59518 0,-0.41595 2.53877,-2.76789 4.11413,-3.81136 1.49181,-0.98814 3.78272,-1.73433 4.49061,-1.46269 0.37021,0.14206 0.44525,0.0871 0.32144,-0.23558 -0.20361,-0.53061 0.14629,-0.65526 1.7233,-0.61395 0.69122,0.0181 1.25677,-0.06 1.25677,-0.1735 0,-0.11353 -0.36521,-0.20642 -0.81158,-0.20642 -0.70963,0 -0.78894,-0.0714 -0.63134,-0.56791 0.15293,-0.48182 0.0955,-0.54573 -0.37904,-0.42164 -0.36954,0.0966 -0.55929,0.0225 -0.55929,-0.21839 0,-0.26899 -0.31233,-0.34127 -1.19063,-0.27552 -0.65484,0.049 -1.19062,-9.5e-4 -1.19062,-0.11106 0,-0.29147 -1.21007,-0.54885 -1.69877,-0.36132 -0.49521,0.19003 -0.56293,0.89381 -0.0872,0.90592 0.18409,0.005 0.0995,0.18324 -0.19084,0.40271 -0.28687,0.21687 -0.67382,0.33588 -0.8599,0.26447 -0.18608,-0.0714 -0.33832,-0.0145 -0.33832,0.12646 0,0.14095 0.11906,0.25628 0.26458,0.25628 0.14552,0 0.26459,0.35718 0.26459,0.79375 0,0.91765 -0.31808,1.00483 -1.03831,0.2846 -0.57765,-0.57764 -1.31838,-0.76666 -1.80597,-0.46082 -0.18697,0.11728 -0.33072,0.0857 -0.33072,-0.0728 0,-0.15411 -0.28713,-0.2802 -0.63805,-0.2802 -0.61082,0 -0.79121,-0.51102 -0.33975,-0.96248 0.37792,-0.37792 0.16173,-0.6249 -0.54356,-0.62097 -0.56698,0.003 -0.63999,0.0607 -0.33073,0.26053 0.5238,0.33851 0.20306,0.3179 -1.82728,-0.11741 -0.93225,-0.19988 -1.85498,-0.30202 -2.05052,-0.22699 -0.19554,0.075 -0.35949,0.0344 -0.36433,-0.0903 -0.005,-0.12471 -0.24711,-0.51294 -0.53837,-0.86273 -0.44966,-0.54003 -0.81627,-0.65147 -2.42977,-0.73859 -1.04511,-0.0564 -1.98029,-0.23218 -2.07817,-0.39056 -0.48073,-0.77784 0.18179,-3.83857 0.92287,-4.26353 0.67729,-0.38839 9.01144,-0.48676 11.40828,-0.13466 0.87313,0.12826 1.96075,0.29038 2.41695,0.36027 0.5724,0.0877 0.81839,0.26547 0.79375,0.57367 -0.0196,0.24564 0.17266,0.48967 0.42732,0.54229 0.27605,0.0571 0.46302,-0.063 0.46302,-0.29718 0,-0.43848 0.55212,-0.43623 1.09779,0.004 0.46351,0.37435 1.54805,-0.0235 1.54805,-0.56791 0,-0.22297 0.12898,-0.4054 0.28663,-0.4054 0.15764,0 0.23788,-0.14625 0.1783,-0.325 -0.0596,-0.17875 -0.0118,-0.44664 0.10625,-0.59531 1.30922,-1.6492 1.71956,-1.90909 1.80646,-1.86004 0.0556,0.0314 0.13361,-0.0202 0.17328,-0.11458 0.0397,-0.0944 0.12981,-0.17165 0.20032,-0.17165 0.13766,0 -0.75094,2.03612 -2.02076,3.66189 -0.54148,0.69327 -0.65844,0.99219 -0.38824,0.99219 0.21269,0 0.53493,0.17859 0.71609,0.39687 0.40015,0.48216 -0.0226,0.545 -0.81465,0.12111 -0.29841,-0.1597 -0.68413,-0.18127 -0.91647,-0.0512 -0.2964,0.16587 0.12059,0.45382 1.5964,1.10239 1.20701,0.53044 2.20216,1.16517 2.51449,1.60381 0.28431,0.39926 0.87719,0.87517 1.31753,1.05756 0.44034,0.18239 0.80062,0.42236 0.80062,0.53325 0,0.11089 0.23214,0.26233 0.51587,0.33653 0.63444,0.16591 1.54117,1.60379 1.76781,2.80336 0.27033,1.4308 -1.25961,4.33538 -2.96231,5.62393 -1.43963,1.08947 -4.83119,2.61202 -5.81842,2.61202 -0.83386,0 -1.46654,0.27291 -1.29103,0.55689 0.0805,0.13028 -0.18885,0.23686 -0.59858,0.23686 -0.40973,0 -1.14819,0.11565 -1.64102,0.25699 -0.49283,0.14134 -1.75336,0.33467 -2.80119,0.42962 -1.89819,0.17201 -1.90721,0.16972 -2.47563,-0.62856 z m 7.09279,-2.29542 c 0.42105,-0.50733 0.12961,-0.93763 -0.63505,-0.93763 -0.69184,0 -1.34111,0.62796 -1.08228,1.04675 0.25086,0.40591 1.34774,0.33622 1.71733,-0.10912 z m 4.17681,-1.04602 c 0.61846,-0.77344 1.12448,-1.54172 1.12448,-1.70727 0,-0.16555 0.29302,-0.301 0.65115,-0.301 0.35813,0 0.88719,-0.25336 1.17568,-0.56302 0.45329,-0.48655 0.47347,-0.61407 0.14853,-0.939 -0.20679,-0.20679 -0.52749,-0.35605 -0.71265,-0.33168 -0.70305,0.0925 -0.99813,-0.0317 -0.99813,-0.4203 0,-0.29659 -0.17334,-0.35841 -0.66146,-0.2359 -0.3638,0.0913 -0.66522,0.0638 -0.66982,-0.0611 -0.0127,-0.34384 -1.32158,-1.76349 -1.47994,-1.60513 -0.076,0.076 0.16819,0.71391 0.54273,1.41748 0.87973,1.65257 0.88922,3.17328 0.0305,4.88304 -0.35779,0.71236 -0.56615,1.28957 -0.46302,1.28268 0.10314,-0.007 0.69354,-0.64534 1.312,-1.41879 z m 1.78594,-2.53744 c 0.0899,-0.14552 0.21602,-0.26458 0.2802,-0.26458 0.0642,0 0.11667,0.11906 0.11667,0.26458 0,0.14552 -0.12609,0.26458 -0.2802,0.26458 -0.15411,0 -0.20661,-0.11906 -0.11667,-0.26458 z m -4.2169,1.42968 c 1.94365,-0.92233 1.11263,-2.66918 -1.14854,-2.41432 -2.01728,0.22738 -2.86018,1.75002 -1.38144,2.49547 0.88087,0.44406 1.46249,0.4254 2.52998,-0.0812 z m 6.01552,-4.66982 c 0.32044,0.0788 0.49436,0.0473 0.38648,-0.0699 -0.10787,-0.11724 -0.0703,-0.36472 0.0834,-0.54996 0.22039,-0.26555 0.12196,-0.29466 -0.46531,-0.1376 -0.45161,0.12077 -0.76904,0.40002 -0.80632,0.70933 -0.0338,0.28057 0.002,0.37395 0.0788,0.20749 0.0772,-0.16645 0.4025,-0.23817 0.72294,-0.15937 z m -0.89823,-1.42097 c -0.30358,-0.3658 -1.29727,-0.51647 -1.29727,-0.1967 0,0.32494 0.90668,0.82912 1.25244,0.69644 0.26569,-0.10196 0.27635,-0.22078 0.0448,-0.49974 z m -11.08685,-1.54729 c 0,-0.0676 -0.23813,-0.25042 -0.52917,-0.40618 -0.31889,-0.17067 -0.52916,-0.18208 -0.52916,-0.0287 0,0.13997 0.20835,0.30894 0.46302,0.37549 0.25466,0.0666 0.49278,0.13481 0.52916,0.15169 0.0364,0.0169 0.0661,-0.0246 0.0661,-0.0923 z m 1.85208,-1.19993 c -0.31172,-0.20146 -0.31896,-0.25735 -0.0337,-0.26054 0.29275,-0.003 0.29929,-0.081 0.0337,-0.40092 -0.18116,-0.21828 -0.24069,-0.39688 -0.13229,-0.39688 0.1084,0 0.0489,-0.17859 -0.13229,-0.39687 -0.18116,-0.21828 -0.64222,-0.39211 -1.02459,-0.38628 l -0.6952,0.0106 0.7276,0.39473 c 0.49059,0.26615 0.72761,0.60745 0.72761,1.04774 0,0.44707 0.14602,0.65173 0.46302,0.64896 0.39569,-0.003 0.40531,-0.0413 0.0661,-0.26053 z m -11.9283,-1.15479 c -0.0606,-0.053 -0.37545,-0.2344 -0.6996,-0.403 -0.49535,-0.25764 -0.56469,-0.24226 -0.43471,0.0965 0.085,0.22164 0.39987,0.40299 0.6996,0.40299 0.29973,0 0.49535,-0.0434 0.43471,-0.0964 z m 15.1033,3.00687 c 0,-0.14552 0.1786,-0.26458 0.39688,-0.26458 0.21828,0 0.39687,0.11906 0.39687,0.26458 0,0.14552 -0.17859,0.26458 -0.39687,0.26458 -0.21828,0 -0.39688,-0.11906 -0.39688,-0.26458 z m -27.516665,-5.64237 c 0.532335,-0.54756 1.852083,-0.86799 1.852083,-0.44968 0,0.17342 -0.148828,0.2622 -0.330729,0.19728 -0.181901,-0.0649 -0.687916,0.0572 -1.124479,0.27129 -0.714931,0.35068 -0.75434,0.3488 -0.396875,-0.0189 z m 32.180765,-4.80927 c -0.0473,-0.07 0.22246,-0.40503 0.60616,-0.75265 0.49658,-0.44988 0.7119,-0.74113 0.76378,-1.03308 0.0754,-0.42449 0.56716,-0.94721 0.81896,-0.87056 0.0803,0.0244 0.14599,-0.009 0.14599,-0.0754 0,-0.0659 0.14994,-0.24678 0.33321,-0.40196 0.26172,-0.22163 0.37909,-0.25599 0.5471,-0.16017 0.33976,0.19377 0.78886,0.0211 1.52108,-0.584974 0.37436,-0.309853 0.92126,-0.756389 1.21531,-0.992302 0.29405,-0.235912 0.53464,-0.50046 0.53464,-0.587885 0,-0.189139 0.14973,-0.206027 0.33408,-0.03768 0.0932,0.08511 0.17934,0.01866 0.28887,-0.222827 0.18969,-0.418201 0.0995,-0.584441 -0.27713,-0.510977 -0.27926,0.05447 -0.27968,0.05279 -0.0319,-0.130202 0.20896,-0.154345 0.22082,-0.202406 0.0709,-0.287049 -0.1524,-0.08601 -0.15651,-0.21872 -0.0267,-0.861966 0.0844,-0.418165 0.11991,-0.809793 0.079,-0.870284 -0.12824,-0.189495 0.24053,-0.114965 0.56799,0.114791 0.28259,0.198275 0.30935,0.288174 0.2749,0.923134 -0.0469,0.864629 -0.27039,1.462781 -0.87653,2.346181 -0.84282,1.22835 -1.30155,1.53253 -3.58976,2.38032 -0.75775,0.28074 -1.36966,0.77768 -2.35036,1.90875 -0.28761,0.33172 -0.60638,0.60313 -0.70836,0.60313 -0.10198,0 -0.15043,0.0517 -0.10767,0.11488 0.0427,0.0632 0.0494,0.11488 0.0148,0.11488 -0.0346,0 -0.10132,-0.0568 -0.14827,-0.12614 z m -39.088254,-2.54339 c -0.438484,0 -0.567755,-0.30803 -0.52566,-0.33165 0.222517,-0.12485 1.262733,0.2156 1.160636,0.37986 -0.02607,0.0419 0.03912,0.11228 0.144877,0.1563 0.168485,0.0701 0.16939,0.0803 0.0073,0.0821 -0.101734,0.001 -0.348681,-0.28662 -0.787167,-0.28662 z m 1.566143,-0.12186 -0.230699,-0.1478 0.272481,0.12514 c 0.149863,0.0688 0.272481,0.13534 0.272481,0.1478 0,0.0526 -0.09747,0.0138 -0.314263,-0.12514 z m 37.516271,0.54182 c -0.11781,-0.0108 0.0764,-0.20171 0.0764,-0.22615 0,-0.0245 0.0864,-0.0142 0.19191,0.0228 0.14799,0.0519 0.15886,0.10362 0.0475,0.22615 -0.19675,0.21649 -0.0518,10e-4 -0.31576,-0.0228 z m -38.590373,-1.09934 c 0.504347,0 -0.756907,-0.48053 -0.77817,-0.55922 -0.0073,-0.0271 -0.01592,-0.0567 -0.01911,-0.0657 -0.0032,-0.009 -0.02959,-0.179003 -0.05868,-0.377717 l -0.05288,-0.3613 0.300881,0.184313 c 0.165484,0.101372 0.30088,0.223315 0.30088,0.270985 0,0.04767 0.189361,0.312069 0.420802,0.587559 0.231441,0.27548 0.375113,0.50088 0.319271,0.50088 -0.05584,0 -0.688465,-0.1798 -0.433001,-0.1798 z M 130.3523,99.955511 c -0.21055,-0.123231 -0.48194,-0.429236 -0.6031,-0.680011 l -0.22028,-0.455955 0.38793,-0.66389 c 0.48507,-0.830115 0.71253,-1.064838 1.22307,-1.262172 0.88754,-0.343057 1.83161,-0.08304 1.96854,0.542186 0.18097,0.826302 0.0983,1.193125 -0.38503,1.708796 -0.40526,0.432362 -1.49469,1.038295 -1.86252,1.035915 -0.0692,-4.3e-4 -0.29806,-0.10164 -0.50861,-0.224869 z m -1.53826,-1.861387 c 0.0627,-0.171728 0.3486,-0.266282 0.3486,-0.115284 0,0.06169 -0.0897,0.143578 -0.19922,0.181973 -0.12251,0.04293 -0.18002,0.01726 -0.14938,-0.06669 z m -42.459332,0.162025 c -0.333967,-0.185521 -0.606937,-0.267324 -1.060052,-0.317673 -0.543313,-0.06037 -0.623325,-0.05457 -0.729345,0.05289 -0.166554,0.168812 -0.410124,0.150307 -0.572938,-0.04353 -0.07893,-0.09396 -0.239622,-0.164227 -0.3756,-0.164227 -0.420782,0 -0.384566,-0.115588 0.05007,-0.159818 0.568548,-0.05786 1.28081,0.05421 2.329068,0.366457 0.928818,0.276669 1.096241,0.359728 0.918954,0.455895 -0.06642,0.03603 -0.289459,-0.03962 -0.560161,-0.189994 z m 47.336662,-3.291577 c 0,-0.216029 0.36581,-0.545264 0.51334,-0.462004 0.19634,0.110813 0.12802,0.382232 -0.12767,0.507197 -0.32259,0.157662 -0.38567,0.150272 -0.38567,-0.04519 z m -1.25798,-0.442433 -0.4403,-0.113339 0.42361,-0.162848 c 0.4691,-0.180337 0.78762,-0.164811 0.86305,0.04207 0.0844,0.23147 -0.84636,0.681978 -0.84636,0.234115 z"
         id="path3"
         sodipodi:nodetypes="sssscssssscssssssscssscscssscsssssscsssssscssccsssssssssssscsssscsssssssssssssccsscscssscssscsssssssssssssssscssssssssssscsssscssssssssssccsscscssssccscssscssssssscssssssssssssccsssscssssssscsssccccsssccssccsccsscsscsscccsscscccccssscssccccscsccsssssssscsscsssssssssssssssssssssscsccsssscssscssssssssssscscsssssssscsssscsssssssssssssscsssccssscc" /></g></g></svg>
